# xmcd
#
# Track frame offsets:
#	150
#	20282
#	36253
#	49568
#	63550
#	82239
#	93120
#
# Disc length: 1431 seconds
#
# Revision: 0
# Processed by: cddbd v1.5.1PL0 Copyright (c) Steve Scherf et al.
# Submitted via: dBpowerAMP V4.0
#
DISCID=51059507
DTITLE=Z-Force - Rock Awhile!
DYEAR=1900
DGENRE=Bluegrass
TTITLE0=Body by Fisher
TTITLE1=Going back
TTITLE2=Coming through
TTITLE3=Slippin'
TTITLE4=Nellay
TTITLE5=Fred G Zydeco
TTITLE6=Act like a Monkey
EXTD=
EXTT0=
EXTT1=
EXTT2=
EXTT3=
EXTT4=
EXTT5=
EXTT6=
PLAYORDER=
